<svg width="37" height="34" viewBox="0 0 37 34" fill="none" xmlns="http://www.w3.org/2000/svg">
<mask id="path-1-inside-1" fill="white">
<path fill-rule="evenodd" clip-rule="evenodd" d="M31.3318 22.9061C32.1135 20.963 32.5445 18.8351 32.5445 16.6046C32.5445 7.43413 25.2592 0 16.2722 0C7.28533 0 0 7.43413 0 16.6046C0 25.775 7.28533 33.2092 16.2722 33.2092C19.5003 33.2092 22.5088 32.25 25.039 30.5957L37 33.9999L31.3318 22.9061Z"/>
</mask>
<path d="M31.3318 22.9061L27.6208 21.4132L26.9408 23.1035L27.7698 24.726L31.3318 22.9061ZM25.039 30.5957L26.134 26.7485L24.3781 26.2488L22.8501 27.2478L25.039 30.5957ZM37 33.9999L35.9051 37.8472L44.7427 40.3624L40.562 32.18L37 33.9999ZM28.5445 16.6046C28.5445 18.3163 28.2143 19.9379 27.6208 21.4132L35.0428 24.3989C36.0126 21.9881 36.5445 19.3539 36.5445 16.6046H28.5445ZM16.2722 4C22.9742 4 28.5445 9.56664 28.5445 16.6046H36.5445C36.5445 5.30161 27.5442 -4 16.2722 -4V4ZM4 16.6046C4 9.56664 9.57033 4 16.2722 4V-4C5.00034 -4 -4 5.30161 -4 16.6046H4ZM16.2722 29.2092C9.57033 29.2092 4 23.6425 4 16.6046H-4C-4 27.9076 5.00034 37.2092 16.2722 37.2092V29.2092ZM22.8501 27.2478C20.947 28.4921 18.695 29.2092 16.2722 29.2092V37.2092C20.3056 37.2092 24.0707 36.0079 27.2279 33.9437L22.8501 27.2478ZM23.9441 34.443L35.9051 37.8472L38.095 30.1527L26.134 26.7485L23.9441 34.443ZM40.562 32.18L34.8938 21.0861L27.7698 24.726L33.438 35.8199L40.562 32.18Z" fill="black" mask="url(#path-1-inside-1)"/>
</svg>
