<svg width="50" height="50" viewBox="0 0 50 50" fill="none" xmlns="http://www.w3.org/2000/svg">
<path d="M0 25C0 11.1929 11.1929 0 25 0C38.8071 0 50 11.1929 50 25C50 38.8071 38.8071 50 25 50C11.1929 50 0 38.8071 0 25Z" fill="url(#paint0_linear)"/>
<path d="M40.3332 39.1665C41.5554 41.4998 42.1666 49.9998 42.1666 49.9998H7.83325C7.83325 49.9998 8.44442 41.4998 9.66659 39.1665C11.4999 35.6665 24.9999 31.1665 24.9999 31.1665C24.9999 31.1665 38.4999 35.6665 40.3332 39.1665Z" fill="url(#paint1_linear)"/>
<path d="M39.2451 29.2351L12.1689 25.9629C10.834 18.8765 12.4173 14.4116 16.9189 12.5684C18.9999 5.74991 27.0994 6.30457 29.3952 6.86041C37.2078 8.75218 40.4911 16.2104 39.2451 29.2351Z" fill="white"/>
<path d="M20.9999 33.1666V23.1666C16.8297 23.1043 17.6431 15.878 21.8332 18.0833C22.5832 18.4166 24.4999 17.5 23.8332 15.25C28.3332 18.5833 34.6039 12.7333 34.9999 16.3333C35.7791 23.4185 34.2714 29.242 30.2736 29.2423C29.8476 29.2585 29.421 29.2332 28.9999 29.1666V33.1666C27.6949 33.9444 26.3899 34.3333 25.0849 34.3333C23.7799 34.3333 22.4182 33.9444 20.9999 33.1666Z" fill="url(#paint2_linear)"/>
<path d="M28.9998 29.1665V30.4998C27.1665 30.4998 24.5553 29.3053 23.1665 26.9165C24.8332 28.0276 26.7776 28.7776 28.9998 29.1665Z" fill="#FA8B54"/>
<path d="M24.9943 34.1623C26.1345 34.1078 28.9998 33.5178 28.9998 32.2432V31.1665C29.3055 31.1665 30.1806 31.8885 30.6308 32.4998C32.4101 34.9165 30.4365 37.0832 28.8268 37.0832C26.7958 37.0832 25.4498 35.3862 24.9998 34.5698C24.5498 35.3865 23.2038 37.0832 21.1728 37.0832C19.5631 37.0832 17.5895 34.9165 19.3688 32.4998C19.819 31.8885 20.6941 31.1665 20.9998 31.1665V32.2432C20.9998 33.5178 23.7898 34.1078 24.9943 34.1623Z" fill="url(#paint3_linear)"/>
<defs>
<linearGradient id="paint0_linear" x1="25" y1="0" x2="25" y2="50" gradientUnits="userSpaceOnUse">
<stop stop-color="#1D0024"/>
<stop offset="1" stop-color="#100014"/>
</linearGradient>
<linearGradient id="paint1_linear" x1="24.9999" y1="49.9998" x2="24.9999" y2="31.1665" gradientUnits="userSpaceOnUse">
<stop stop-color="#E6864E"/>
<stop offset="1" stop-color="#E67240"/>
</linearGradient>
<linearGradient id="paint2_linear" x1="26.7246" y1="15.1138" x2="26.7246" y2="34.3333" gradientUnits="userSpaceOnUse">
<stop stop-color="#F7B186"/>
<stop offset="1" stop-color="#FFC299"/>
</linearGradient>
<linearGradient id="paint3_linear" x1="24.9998" y1="37.0832" x2="24.9998" y2="31.1665" gradientUnits="userSpaceOnUse">
<stop stop-color="#FCF2EB"/>
<stop offset="1" stop-color="#FFF9F5"/>
</linearGradient>
</defs>
</svg>
